<mxfile host="app.diagrams.net" modified="2024-04-21T07:18:36.916Z" agent="Mozilla/5.0 (Macintosh; Intel Mac OS X 10_15_7) AppleWebKit/537.36 (KHTML, like Gecko) Chrome/120.0.0.0 Safari/537.36" etag="oYqhZ79WPCgKnl5NNUIh" version="24.2.2" type="device">
  <diagram name="페이지-1" id="4VGO-l1CTAHvm0Rfh2gj">
    <mxGraphModel dx="1482" dy="1955" grid="1" gridSize="10" guides="1" tooltips="1" connect="1" arrows="1" fold="1" page="1" pageScale="1" pageWidth="827" pageHeight="1169" math="0" shadow="0">
      <root>
        <mxCell id="0" />
        <mxCell id="1" parent="0" />
        <mxCell id="9FG_8SkPecRc1m7s3W2e-1" value="&lt;b&gt;DEV&lt;/b&gt;" style="rounded=1;whiteSpace=wrap;html=1;" vertex="1" parent="1">
          <mxGeometry x="180" y="150" width="120" height="280" as="geometry" />
        </mxCell>
        <mxCell id="9FG_8SkPecRc1m7s3W2e-2" value="&lt;b&gt;STAGE&lt;/b&gt;" style="rounded=1;whiteSpace=wrap;html=1;" vertex="1" parent="1">
          <mxGeometry x="440" y="150" width="120" height="280" as="geometry" />
        </mxCell>
        <mxCell id="9FG_8SkPecRc1m7s3W2e-3" value="&lt;b&gt;PROD&lt;/b&gt;" style="rounded=1;whiteSpace=wrap;html=1;" vertex="1" parent="1">
          <mxGeometry x="700" y="150" width="120" height="280" as="geometry" />
        </mxCell>
        <mxCell id="9FG_8SkPecRc1m7s3W2e-4" value="브랜치 전략 수립에 중요한 점&lt;div&gt;&lt;br&gt;&lt;/div&gt;&lt;div&gt;1. 코드를 작업하는 구성원과 서비스 특성에 맞춰서 서버를 구성한다. 그리고 이에 알맞는 브랜치 전략을 수립한다.&lt;/div&gt;&lt;div&gt;&lt;br&gt;&lt;/div&gt;&lt;div&gt;2. 개발 코드를 올리는 DEV는 우선 필요함&lt;/div&gt;&lt;div&gt;&lt;br&gt;&lt;/div&gt;&lt;div&gt;3. 실제 운영되는 서버 코드를 올릴 PROD도 필요함&lt;/div&gt;&lt;div&gt;&lt;br&gt;&lt;/div&gt;&lt;div&gt;4. 결국 STAGE를 어떻게 구성할지의 문제인 것 같다.&amp;nbsp;&lt;/div&gt;&lt;div&gt;- 내가 올릴 서비스 말고 다른 서비스가 있는 경우, 다른 서비스와 통합되었을 때를 확인하는 Integration 브랜치가 필요할듯&lt;/div&gt;" style="text;html=1;align=left;verticalAlign=middle;resizable=0;points=[];autosize=1;strokeColor=none;fillColor=none;" vertex="1" parent="1">
          <mxGeometry x="180" y="520" width="600" height="160" as="geometry" />
        </mxCell>
        <mxCell id="9FG_8SkPecRc1m7s3W2e-12" value="" style="group" vertex="1" connectable="0" parent="1">
          <mxGeometry x="310" y="120" width="120" height="340" as="geometry" />
        </mxCell>
        <mxCell id="9FG_8SkPecRc1m7s3W2e-5" value="" style="endArrow=none;html=1;rounded=0;" edge="1" parent="9FG_8SkPecRc1m7s3W2e-12">
          <mxGeometry width="50" height="50" relative="1" as="geometry">
            <mxPoint x="50" y="160" as="sourcePoint" />
            <mxPoint x="50" as="targetPoint" />
          </mxGeometry>
        </mxCell>
        <mxCell id="9FG_8SkPecRc1m7s3W2e-6" value="" style="endArrow=none;dashed=1;html=1;dashPattern=1 3;strokeWidth=2;rounded=0;" edge="1" parent="9FG_8SkPecRc1m7s3W2e-12">
          <mxGeometry width="50" height="50" relative="1" as="geometry">
            <mxPoint x="50" y="310" as="sourcePoint" />
            <mxPoint x="50" y="160" as="targetPoint" />
          </mxGeometry>
        </mxCell>
        <mxCell id="9FG_8SkPecRc1m7s3W2e-7" value="&lt;span style=&quot;color: rgba(0, 0, 0, 0); font-family: monospace; font-size: 0px; text-align: start; background-color: rgb(251, 251, 251);&quot;&gt;%3CmxGraphModel%3E%3Croot%3E%3CmxCell%20id%3D%220%22%2F%3E%3CmxCell%20id%3D%221%22%20parent%3D%220%22%2F%3E%3CmxCell%20id%3D%222%22%20value%3D%22%22%20style%3D%22group%22%20vertex%3D%221%22%20connectable%3D%220%22%20parent%3D%221%22%3E%3CmxGeometry%20x%3D%22310%22%20y%3D%22120%22%20width%3D%22120%22%20height%3D%22340%22%20as%3D%22geometry%22%2F%3E%3C%2FmxCell%3E%3CmxCell%20id%3D%223%22%20value%3D%22%22%20style%3D%22endArrow%3Dnone%3Bhtml%3D1%3Brounded%3D0%3B%22%20edge%3D%221%22%20parent%3D%222%22%3E%3CmxGeometry%20width%3D%2250%22%20height%3D%2250%22%20relative%3D%221%22%20as%3D%22geometry%22%3E%3CmxPoint%20x%3D%2250%22%20y%3D%22160%22%20as%3D%22sourcePoint%22%2F%3E%3CmxPoint%20x%3D%2250%22%20as%3D%22targetPoint%22%2F%3E%3C%2FmxGeometry%3E%3C%2FmxCell%3E%3CmxCell%20id%3D%224%22%20value%3D%22%22%20style%3D%22endArrow%3Dnone%3Bdashed%3D1%3Bhtml%3D1%3BdashPattern%3D1%203%3BstrokeWidth%3D2%3Brounded%3D0%3B%22%20edge%3D%221%22%20parent%3D%222%22%3E%3CmxGeometry%20width%3D%2250%22%20height%3D%2250%22%20relative%3D%221%22%20as%3D%22geometry%22%3E%3CmxPoint%20x%3D%2250%22%20y%3D%22310%22%20as%3D%22sourcePoint%22%2F%3E%3CmxPoint%20x%3D%2250%22%20y%3D%22160%22%20as%3D%22targetPoint%22%2F%3E%3C%2FmxGeometry%3E%3C%2FmxCell%3E%3CmxCell%20id%3D%225%22%20value%3D%22%22%20style%3D%22shape%3DflexArrow%3BendArrow%3Dclassic%3Bhtml%3D1%3Brounded%3D0%3B%22%20edge%3D%221%22%20parent%3D%222%22%3E%3CmxGeometry%20width%3D%2250%22%20height%3D%2250%22%20relative%3D%221%22%20as%3D%22geometry%22%3E%3CmxPoint%20x%3D%2230%22%20y%3D%22250%22%20as%3D%22sourcePoint%22%2F%3E%3CmxPoint%20x%3D%2290%22%20y%3D%22250%22%20as%3D%22targetPoint%22%2F%3E%3C%2FmxGeometry%3E%3C%2FmxCell%3E%3CmxCell%20id%3D%226%22%20value%3D%22%26lt%3Bb%26gt%3BPR%EB%A1%9C%EB%A7%8C%20Merge%20%EA%B0%80%EB%8A%A5%26lt%3B%2Fb%26gt%3B%22%20style%3D%22text%3Bhtml%3D1%3Balign%3Dcenter%3BverticalAlign%3Dmiddle%3BwhiteSpace%3Dwrap%3Brounded%3D0%3B%22%20vertex%3D%221%22%20parent%3D%222%22%3E%3CmxGeometry%20y%3D%22310%22%20width%3D%22120%22%20height%3D%2230%22%20as%3D%22geometry%22%2F%3E%3C%2FmxCell%3E%3C%2Froot%3E%3C%2FmxGraphModel%3E&lt;/span&gt;" style="shape=flexArrow;endArrow=classic;html=1;rounded=0;" edge="1" parent="9FG_8SkPecRc1m7s3W2e-12">
          <mxGeometry width="50" height="50" relative="1" as="geometry">
            <mxPoint x="30" y="250" as="sourcePoint" />
            <mxPoint x="90" y="250" as="targetPoint" />
          </mxGeometry>
        </mxCell>
        <mxCell id="9FG_8SkPecRc1m7s3W2e-8" value="&lt;b&gt;PR로만 Merge 가능&lt;/b&gt;" style="text;html=1;align=center;verticalAlign=middle;whiteSpace=wrap;rounded=0;" vertex="1" parent="9FG_8SkPecRc1m7s3W2e-12">
          <mxGeometry y="310" width="120" height="30" as="geometry" />
        </mxCell>
        <mxCell id="9FG_8SkPecRc1m7s3W2e-13" value="" style="group" vertex="1" connectable="0" parent="1">
          <mxGeometry x="580" y="120" width="120" height="340" as="geometry" />
        </mxCell>
        <mxCell id="9FG_8SkPecRc1m7s3W2e-14" value="" style="endArrow=none;html=1;rounded=0;" edge="1" parent="9FG_8SkPecRc1m7s3W2e-13">
          <mxGeometry width="50" height="50" relative="1" as="geometry">
            <mxPoint x="50" y="160" as="sourcePoint" />
            <mxPoint x="50" as="targetPoint" />
          </mxGeometry>
        </mxCell>
        <mxCell id="9FG_8SkPecRc1m7s3W2e-15" value="" style="endArrow=none;dashed=1;html=1;dashPattern=1 3;strokeWidth=2;rounded=0;" edge="1" parent="9FG_8SkPecRc1m7s3W2e-13">
          <mxGeometry width="50" height="50" relative="1" as="geometry">
            <mxPoint x="50" y="310" as="sourcePoint" />
            <mxPoint x="50" y="160" as="targetPoint" />
          </mxGeometry>
        </mxCell>
        <mxCell id="9FG_8SkPecRc1m7s3W2e-16" value="" style="shape=flexArrow;endArrow=classic;html=1;rounded=0;" edge="1" parent="9FG_8SkPecRc1m7s3W2e-13">
          <mxGeometry width="50" height="50" relative="1" as="geometry">
            <mxPoint x="30" y="250" as="sourcePoint" />
            <mxPoint x="90" y="250" as="targetPoint" />
          </mxGeometry>
        </mxCell>
        <mxCell id="9FG_8SkPecRc1m7s3W2e-17" value="&lt;b&gt;PR로만 Merge 가능&lt;/b&gt;" style="text;html=1;align=center;verticalAlign=middle;whiteSpace=wrap;rounded=0;" vertex="1" parent="9FG_8SkPecRc1m7s3W2e-13">
          <mxGeometry y="310" width="120" height="30" as="geometry" />
        </mxCell>
        <mxCell id="9FG_8SkPecRc1m7s3W2e-18" value="" style="shape=flexArrow;endArrow=classic;html=1;rounded=0;" edge="1" parent="1">
          <mxGeometry width="50" height="50" relative="1" as="geometry">
            <mxPoint x="110" y="370" as="sourcePoint" />
            <mxPoint x="170" y="370" as="targetPoint" />
          </mxGeometry>
        </mxCell>
        <mxCell id="9FG_8SkPecRc1m7s3W2e-19" value="Actor" style="shape=umlActor;verticalLabelPosition=bottom;verticalAlign=top;html=1;outlineConnect=0;" vertex="1" parent="1">
          <mxGeometry x="60" y="340" width="30" height="60" as="geometry" />
        </mxCell>
        <mxCell id="9FG_8SkPecRc1m7s3W2e-20" value="&lt;b&gt;PUSH&lt;/b&gt;" style="text;html=1;align=center;verticalAlign=middle;whiteSpace=wrap;rounded=0;" vertex="1" parent="1">
          <mxGeometry x="110" y="430" width="60" height="30" as="geometry" />
        </mxCell>
        <mxCell id="9FG_8SkPecRc1m7s3W2e-21" value="" style="endArrow=classic;html=1;rounded=0;" edge="1" parent="1">
          <mxGeometry width="50" height="50" relative="1" as="geometry">
            <mxPoint x="140" y="90" as="sourcePoint" />
            <mxPoint x="139.5" y="300" as="targetPoint" />
          </mxGeometry>
        </mxCell>
        <mxCell id="9FG_8SkPecRc1m7s3W2e-22" value="&lt;div&gt;&lt;u&gt;Github Action&lt;/u&gt;&lt;/div&gt;&lt;div&gt;&lt;u&gt;CI&lt;/u&gt;&lt;/div&gt;&lt;div&gt;&lt;u&gt;- Checkout : 코드 읽어오기&lt;/u&gt;&lt;/div&gt;&lt;div&gt;- formatting&lt;/div&gt;&lt;div&gt;- Build (Docker build)&lt;/div&gt;&lt;div&gt;- Test&lt;/div&gt;&lt;div&gt;- Lint &amp;amp; Formatting : 둘의 차이는? 린팅을 테스트 후에 하는 이유?&lt;/div&gt;&lt;div&gt;- Report&lt;/div&gt;&lt;div&gt;&lt;br&gt;&lt;/div&gt;" style="text;html=1;align=left;verticalAlign=middle;whiteSpace=wrap;rounded=0;" vertex="1" parent="1">
          <mxGeometry x="110" y="20" width="240" height="30" as="geometry" />
        </mxCell>
        <mxCell id="9FG_8SkPecRc1m7s3W2e-23" value="active_profiles 살펴보자" style="text;html=1;align=center;verticalAlign=middle;resizable=0;points=[];autosize=1;strokeColor=none;fillColor=none;" vertex="1" parent="1">
          <mxGeometry x="415" y="58" width="150" height="30" as="geometry" />
        </mxCell>
      </root>
    </mxGraphModel>
  </diagram>
</mxfile>
